<svg width="470" height="324" viewBox="0 0 470 324" fill="none" xmlns="http://www.w3.org/2000/svg">
<rect x="0.75" y="0.75" width="468.5" height="322.5" rx="3.25" stroke="black" stroke-width="1.5"/>
<path d="M24.74 46.02C24.74 44.66 25.0533 43.44 25.68 42.36C26.32 41.28 27.18 40.44 28.26 39.84C29.3533 39.2267 30.5467 38.92 31.84 38.92C33.32 38.92 34.6333 39.2867 35.78 40.02C36.94 40.74 37.78 41.7667 38.3 43.1H35.56C35.2 42.3667 34.7 41.82 34.06 41.46C33.42 41.1 32.68 40.92 31.84 40.92C30.92 40.92 30.1 41.1267 29.38 41.54C28.66 41.9533 28.0933 42.5467 27.68 43.32C27.28 44.0933 27.08 44.9933 27.08 46.02C27.08 47.0467 27.28 47.9467 27.68 48.72C28.0933 49.4933 28.66 50.0933 29.38 50.52C30.1 50.9333 30.92 51.14 31.84 51.14C32.68 51.14 33.42 50.96 34.06 50.6C34.7 50.24 35.2 49.6933 35.56 48.96H38.3C37.78 50.2933 36.94 51.32 35.78 52.04C34.6333 52.76 33.32 53.12 31.84 53.12C30.5333 53.12 29.34 52.82 28.26 52.22C27.18 51.6067 26.32 50.76 25.68 49.68C25.0533 48.6 24.74 47.38 24.74 46.02ZM40.2088 47.44C40.2088 46.3333 40.4354 45.3533 40.8888 44.5C41.3554 43.6467 41.9821 42.9867 42.7688 42.52C43.5688 42.04 44.4488 41.8 45.4088 41.8C46.2754 41.8 47.0288 41.9733 47.6688 42.32C48.3221 42.6533 48.8421 43.0733 49.2288 43.58V41.98H51.5288V53H49.2288V51.36C48.8421 51.88 48.3154 52.3133 47.6488 52.66C46.9821 53.0067 46.2221 53.18 45.3688 53.18C44.4221 53.18 43.5554 52.94 42.7688 52.46C41.9821 51.9667 41.3554 51.2867 40.8888 50.42C40.4354 49.54 40.2088 48.5467 40.2088 47.44ZM49.2288 47.48C49.2288 46.72 49.0688 46.06 48.7488 45.5C48.4421 44.94 48.0354 44.5133 47.5288 44.22C47.0221 43.9267 46.4754 43.78 45.8888 43.78C45.3021 43.78 44.7554 43.9267 44.2488 44.22C43.7421 44.5 43.3288 44.92 43.0088 45.48C42.7021 46.0267 42.5488 46.68 42.5488 47.44C42.5488 48.2 42.7021 48.8667 43.0088 49.44C43.3288 50.0133 43.7421 50.4533 44.2488 50.76C44.7688 51.0533 45.3154 51.2 45.8888 51.2C46.4754 51.2 47.0221 51.0533 47.5288 50.76C48.0354 50.4667 48.4421 50.04 48.7488 49.48C49.0688 48.9067 49.2288 48.24 49.2288 47.48ZM56.8034 43.58C57.1368 43.02 57.5768 42.5867 58.1234 42.28C58.6834 41.96 59.3434 41.8 60.1034 41.8V44.16H59.5234C58.6301 44.16 57.9501 44.3867 57.4834 44.84C57.0301 45.2933 56.8034 46.08 56.8034 47.2V53H54.5234V41.98H56.8034V43.58ZM64.8592 43.84V49.94C64.8592 50.3533 64.9526 50.6533 65.1392 50.84C65.3392 51.0133 65.6726 51.1 66.1392 51.1H67.5392V53H65.7392C64.7126 53 63.9259 52.76 63.3792 52.28C62.8326 51.8 62.5592 51.02 62.5592 49.94V43.84H61.2592V41.98H62.5592V39.24H64.8592V41.98H67.5392V43.84H64.8592ZM83.8159 39.1V40.96H80.1159V53H77.8359V40.96H74.1159V39.1H83.8159ZM90.905 53.18C89.865 53.18 88.925 52.9467 88.085 52.48C87.245 52 86.585 51.3333 86.105 50.48C85.625 49.6133 85.385 48.6133 85.385 47.48C85.385 46.36 85.6317 45.3667 86.125 44.5C86.6183 43.6333 87.2917 42.9667 88.145 42.5C88.9983 42.0333 89.9517 41.8 91.005 41.8C92.0583 41.8 93.0117 42.0333 93.865 42.5C94.7183 42.9667 95.3917 43.6333 95.885 44.5C96.3783 45.3667 96.625 46.36 96.625 47.48C96.625 48.6 96.3717 49.5933 95.865 50.46C95.3583 51.3267 94.665 52 93.785 52.48C92.9183 52.9467 91.9583 53.18 90.905 53.18ZM90.905 51.2C91.4917 51.2 92.0383 51.06 92.545 50.78C93.065 50.5 93.485 50.08 93.805 49.52C94.125 48.96 94.285 48.28 94.285 47.48C94.285 46.68 94.1317 46.0067 93.825 45.46C93.5183 44.9 93.1117 44.48 92.605 44.2C92.0983 43.92 91.5517 43.78 90.965 43.78C90.3783 43.78 89.8317 43.92 89.325 44.2C88.8317 44.48 88.4383 44.9 88.145 45.46C87.8517 46.0067 87.705 46.68 87.705 47.48C87.705 48.6667 88.005 49.5867 88.605 50.24C89.2183 50.88 89.985 51.2 90.905 51.2ZM101.539 43.84V49.94C101.539 50.3533 101.632 50.6533 101.819 50.84C102.019 51.0133 102.352 51.1 102.819 51.1H104.219V53H102.419C101.392 53 100.606 52.76 100.059 52.28C99.5122 51.8 99.2389 51.02 99.2389 49.94V43.84H97.9389V41.98H99.2389V39.24H101.539V41.98H104.219V43.84H101.539ZM105.56 47.44C105.56 46.3333 105.787 45.3533 106.24 44.5C106.707 43.6467 107.334 42.9867 108.12 42.52C108.92 42.04 109.8 41.8 110.76 41.8C111.627 41.8 112.38 41.9733 113.02 42.32C113.674 42.6533 114.194 43.0733 114.58 43.58V41.98H116.88V53H114.58V51.36C114.194 51.88 113.667 52.3133 113 52.66C112.334 53.0067 111.574 53.18 110.72 53.18C109.774 53.18 108.907 52.94 108.12 52.46C107.334 51.9667 106.707 51.2867 106.24 50.42C105.787 49.54 105.56 48.5467 105.56 47.44ZM114.58 47.48C114.58 46.72 114.42 46.06 114.1 45.5C113.794 44.94 113.387 44.5133 112.88 44.22C112.374 43.9267 111.827 43.78 111.24 43.78C110.654 43.78 110.107 43.9267 109.6 44.22C109.094 44.5 108.68 44.92 108.36 45.48C108.054 46.0267 107.9 46.68 107.9 47.44C107.9 48.2 108.054 48.8667 108.36 49.44C108.68 50.0133 109.094 50.4533 109.6 50.76C110.12 51.0533 110.667 51.2 111.24 51.2C111.827 51.2 112.374 51.0533 112.88 50.76C113.387 50.4667 113.794 50.04 114.1 49.48C114.42 48.9067 114.58 48.24 114.58 47.48ZM122.155 38.2V53H119.875V38.2H122.155Z" fill="black"/>
<path d="M28.768 102.112C28.032 102.112 27.3707 101.984 26.784 101.728C26.208 101.461 25.7547 101.099 25.424 100.64C25.0933 100.171 24.9227 99.632 24.912 99.024H26.464C26.5173 99.5467 26.7307 99.9893 27.104 100.352C27.488 100.704 28.0427 100.88 28.768 100.88C29.4613 100.88 30.0053 100.709 30.4 100.368C30.8053 100.016 31.008 99.568 31.008 99.024C31.008 98.5973 30.8907 98.2507 30.656 97.984C30.4213 97.7173 30.128 97.5147 29.776 97.376C29.424 97.2373 28.9493 97.088 28.352 96.928C27.616 96.736 27.024 96.544 26.576 96.352C26.1387 96.16 25.76 95.8613 25.44 95.456C25.1307 95.04 24.976 94.4853 24.976 93.792C24.976 93.184 25.1307 92.6453 25.44 92.176C25.7493 91.7067 26.1813 91.344 26.736 91.088C27.3013 90.832 27.9467 90.704 28.672 90.704C29.7173 90.704 30.5707 90.9653 31.232 91.488C31.904 92.0107 32.2827 92.704 32.368 93.568H30.768C30.7147 93.1413 30.4907 92.768 30.096 92.448C29.7013 92.1173 29.1787 91.952 28.528 91.952C27.92 91.952 27.424 92.112 27.04 92.432C26.656 92.7413 26.464 93.1787 26.464 93.744C26.464 94.1493 26.576 94.48 26.8 94.736C27.0347 94.992 27.3173 95.1893 27.648 95.328C27.9893 95.456 28.464 95.6053 29.072 95.776C29.808 95.9787 30.4 96.1813 30.848 96.384C31.296 96.576 31.68 96.88 32 97.296C32.32 97.7013 32.48 98.256 32.48 98.96C32.48 99.504 32.336 100.016 32.048 100.496C31.76 100.976 31.3333 101.365 30.768 101.664C30.2027 101.963 29.536 102.112 28.768 102.112ZM42.3986 93.232V102H40.9426V100.704C40.6653 101.152 40.276 101.504 39.7746 101.76C39.284 102.005 38.74 102.128 38.1426 102.128C37.46 102.128 36.8466 101.989 36.3026 101.712C35.7586 101.424 35.3266 100.997 35.0066 100.432C34.6973 99.8667 34.5426 99.1787 34.5426 98.368V93.232H35.9826V98.176C35.9826 99.04 36.2013 99.7067 36.6386 100.176C37.076 100.635 37.6733 100.864 38.4306 100.864C39.2093 100.864 39.8226 100.624 40.2706 100.144C40.7186 99.664 40.9426 98.9653 40.9426 98.048V93.232H42.3986ZM46.313 94.864C46.6117 94.3413 47.049 93.9147 47.625 93.584C48.201 93.2533 48.857 93.088 49.593 93.088C50.3823 93.088 51.0917 93.2747 51.721 93.648C52.3503 94.0213 52.8463 94.5493 53.209 95.232C53.5717 95.904 53.753 96.688 53.753 97.584C53.753 98.4693 53.5717 99.2587 53.209 99.952C52.8463 100.645 52.345 101.184 51.705 101.568C51.0757 101.952 50.3717 102.144 49.593 102.144C48.8357 102.144 48.169 101.979 47.593 101.648C47.0277 101.317 46.601 100.896 46.313 100.384V102H44.857V90.16H46.313V94.864ZM52.265 97.584C52.265 96.9227 52.1317 96.3467 51.865 95.856C51.5983 95.3653 51.2357 94.992 50.777 94.736C50.329 94.48 49.833 94.352 49.289 94.352C48.7557 94.352 48.2597 94.4853 47.801 94.752C47.353 95.008 46.9903 95.3867 46.713 95.888C46.4463 96.3787 46.313 96.9493 46.313 97.6C46.313 98.2613 46.4463 98.8427 46.713 99.344C46.9903 99.8347 47.353 100.213 47.801 100.48C48.2597 100.736 48.7557 100.864 49.289 100.864C49.833 100.864 50.329 100.736 50.777 100.48C51.2357 100.213 51.5983 99.8347 51.865 99.344C52.1317 98.8427 52.265 98.256 52.265 97.584ZM57.4455 94.432V99.6C57.4455 100.027 57.5362 100.331 57.7175 100.512C57.8988 100.683 58.2135 100.768 58.6615 100.768H59.7335V102H58.4215C57.6108 102 57.0028 101.813 56.5975 101.44C56.1922 101.067 55.9895 100.453 55.9895 99.6V94.432H54.8535V93.232H55.9895V91.024H57.4455V93.232H59.7335V94.432H57.4455ZM65.3216 102.144C64.5003 102.144 63.7536 101.957 63.0816 101.584C62.4203 101.211 61.8976 100.683 61.5136 100C61.1403 99.3067 60.9536 98.5067 60.9536 97.6C60.9536 96.704 61.1456 95.9147 61.5296 95.232C61.9243 94.5387 62.4576 94.0107 63.1296 93.648C63.8016 93.2747 64.5536 93.088 65.3856 93.088C66.2176 93.088 66.9696 93.2747 67.6416 93.648C68.3136 94.0107 68.8416 94.5333 69.2256 95.216C69.6203 95.8987 69.8176 96.6933 69.8176 97.6C69.8176 98.5067 69.615 99.3067 69.2096 100C68.815 100.683 68.2763 101.211 67.5936 101.584C66.911 101.957 66.1536 102.144 65.3216 102.144ZM65.3216 100.864C65.8443 100.864 66.335 100.741 66.7936 100.496C67.2523 100.251 67.6203 99.8827 67.8976 99.392C68.1856 98.9013 68.3296 98.304 68.3296 97.6C68.3296 96.896 68.191 96.2987 67.9136 95.808C67.6363 95.3173 67.2736 94.9547 66.8256 94.72C66.3776 94.4747 65.8923 94.352 65.3696 94.352C64.8363 94.352 64.3456 94.4747 63.8976 94.72C63.4603 94.9547 63.1083 95.3173 62.8416 95.808C62.575 96.2987 62.4416 96.896 62.4416 97.6C62.4416 98.3147 62.5696 98.9173 62.8256 99.408C63.0923 99.8987 63.4443 100.267 63.8816 100.512C64.319 100.747 64.799 100.864 65.3216 100.864ZM73.508 94.432V99.6C73.508 100.027 73.5987 100.331 73.78 100.512C73.9613 100.683 74.276 100.768 74.724 100.768H75.796V102H74.484C73.6733 102 73.0653 101.813 72.66 101.44C72.2547 101.067 72.052 100.453 72.052 99.6V94.432H70.916V93.232H72.052V91.024H73.508V93.232H75.796V94.432H73.508ZM77.0161 97.584C77.0161 96.688 77.1975 95.904 77.5601 95.232C77.9228 94.5493 78.4188 94.0213 79.0481 93.648C79.6881 93.2747 80.3975 93.088 81.1761 93.088C81.9441 93.088 82.6108 93.2533 83.1761 93.584C83.7415 93.9147 84.1628 94.3307 84.4401 94.832V93.232H85.9121V102H84.4401V100.368C84.1521 100.88 83.7201 101.307 83.1441 101.648C82.5788 101.979 81.9175 102.144 81.1601 102.144C80.3815 102.144 79.6775 101.952 79.0481 101.568C78.4188 101.184 77.9228 100.645 77.5601 99.952C77.1975 99.2587 77.0161 98.4693 77.0161 97.584ZM84.4401 97.6C84.4401 96.9387 84.3068 96.3627 84.0401 95.872C83.7735 95.3813 83.4108 95.008 82.9521 94.752C82.5041 94.4853 82.0081 94.352 81.4641 94.352C80.9201 94.352 80.4241 94.48 79.9761 94.736C79.5281 94.992 79.1708 95.3653 78.9041 95.856C78.6375 96.3467 78.5041 96.9227 78.5041 97.584C78.5041 98.256 78.6375 98.8427 78.9041 99.344C79.1708 99.8347 79.5281 100.213 79.9761 100.48C80.4241 100.736 80.9201 100.864 81.4641 100.864C82.0081 100.864 82.5041 100.736 82.9521 100.48C83.4108 100.213 83.7735 99.8347 84.0401 99.344C84.3068 98.8427 84.4401 98.2613 84.4401 97.6ZM89.8286 90.16V102H88.3726V90.16H89.8286ZM92.7741 102.096C92.4968 102.096 92.2621 102 92.0701 101.808C91.8781 101.616 91.7821 101.381 91.7821 101.104C91.7821 100.827 91.8781 100.592 92.0701 100.4C92.2621 100.208 92.4968 100.112 92.7741 100.112C93.0408 100.112 93.2648 100.208 93.4461 100.4C93.6381 100.592 93.7341 100.827 93.7341 101.104C93.7341 101.381 93.6381 101.616 93.4461 101.808C93.2648 102 93.0408 102.096 92.7741 102.096ZM92.7741 95.248C92.4968 95.248 92.2621 95.152 92.0701 94.96C91.8781 94.768 91.7821 94.5333 91.7821 94.256C91.7821 93.9787 91.8781 93.744 92.0701 93.552C92.2621 93.36 92.4968 93.264 92.7741 93.264C93.0408 93.264 93.2648 93.36 93.4461 93.552C93.6381 93.744 93.7341 93.9787 93.7341 94.256C93.7341 94.5333 93.6381 94.768 93.4461 94.96C93.2648 95.152 93.0408 95.248 92.7741 95.248Z" fill="black"/>
<path d="M410.432 98.944C410.432 99.456 410.304 99.9467 410.048 100.416C409.792 100.875 409.413 101.259 408.912 101.568C408.421 101.877 407.829 102.053 407.136 102.096V103.392H406.272V102.096C405.301 102.011 404.512 101.701 403.904 101.168C403.296 100.624 402.987 99.936 402.976 99.104H404.528C404.571 99.552 404.736 99.9413 405.024 100.272C405.323 100.603 405.739 100.811 406.272 100.896V96.896C405.557 96.7147 404.981 96.528 404.544 96.336C404.107 96.144 403.733 95.8453 403.424 95.44C403.115 95.0347 402.96 94.4907 402.96 93.808C402.96 92.944 403.259 92.2293 403.856 91.664C404.464 91.0987 405.269 90.784 406.272 90.72V89.392H407.136V90.72C408.043 90.7947 408.773 91.088 409.328 91.6C409.883 92.1013 410.203 92.7573 410.288 93.568H408.736C408.683 93.1947 408.517 92.8587 408.24 92.56C407.963 92.2507 407.595 92.048 407.136 91.952V95.856C407.84 96.0373 408.411 96.224 408.848 96.416C409.296 96.5973 409.669 96.8907 409.968 97.296C410.277 97.7013 410.432 98.2507 410.432 98.944ZM404.448 93.728C404.448 94.2507 404.603 94.6507 404.912 94.928C405.221 95.2053 405.675 95.4347 406.272 95.616V91.92C405.717 91.9733 405.275 92.1547 404.944 92.464C404.613 92.7627 404.448 93.184 404.448 93.728ZM407.136 100.912C407.712 100.848 408.16 100.64 408.48 100.288C408.811 99.936 408.976 99.5147 408.976 99.024C408.976 98.5013 408.816 98.1013 408.496 97.824C408.176 97.536 407.723 97.3067 407.136 97.136V100.912ZM412.561 91.76V90.432H415.569V102H414.097V91.76H412.561ZM425.19 91.568L420.742 102H419.27L423.782 91.712H417.606V90.464H425.19V91.568ZM434.181 91.696H428.565V95.344C428.81 95.0027 429.173 94.7253 429.653 94.512C430.133 94.288 430.65 94.176 431.205 94.176C432.09 94.176 432.81 94.3627 433.365 94.736C433.919 95.0987 434.314 95.5733 434.549 96.16C434.794 96.736 434.917 97.3493 434.917 98C434.917 98.768 434.773 99.456 434.485 100.064C434.197 100.672 433.754 101.152 433.157 101.504C432.57 101.856 431.839 102.032 430.965 102.032C429.845 102.032 428.938 101.744 428.245 101.168C427.551 100.592 427.13 99.824 426.981 98.864H428.405C428.543 99.472 428.837 99.9467 429.285 100.288C429.733 100.629 430.298 100.8 430.981 100.8C431.823 100.8 432.458 100.549 432.885 100.048C433.311 99.536 433.525 98.864 433.525 98.032C433.525 97.2 433.311 96.56 432.885 96.112C432.458 95.6533 431.829 95.424 430.997 95.424C430.431 95.424 429.935 95.5627 429.509 95.84C429.093 96.1067 428.789 96.4747 428.597 96.944H427.221V90.416H434.181V91.696ZM436.851 96.096C436.851 94.2613 437.15 92.832 437.747 91.808C438.345 90.7733 439.39 90.256 440.883 90.256C442.366 90.256 443.406 90.7733 444.003 91.808C444.601 92.832 444.899 94.2613 444.899 96.096C444.899 97.9627 444.601 99.4133 444.003 100.448C443.406 101.483 442.366 102 440.883 102C439.39 102 438.345 101.483 437.747 100.448C437.15 99.4133 436.851 97.9627 436.851 96.096ZM443.459 96.096C443.459 95.168 443.395 94.384 443.267 93.744C443.15 93.0933 442.899 92.5707 442.515 92.176C442.142 91.7813 441.598 91.584 440.883 91.584C440.158 91.584 439.603 91.7813 439.219 92.176C438.846 92.5707 438.595 93.0933 438.467 93.744C438.35 94.384 438.291 95.168 438.291 96.096C438.291 97.056 438.35 97.8613 438.467 98.512C438.595 99.1627 438.846 99.6853 439.219 100.08C439.603 100.475 440.158 100.672 440.883 100.672C441.598 100.672 442.142 100.475 442.515 100.08C442.899 99.6853 443.15 99.1627 443.267 98.512C443.395 97.8613 443.459 97.056 443.459 96.096Z" fill="black"/>
<path d="M28.768 158.112C28.032 158.112 27.3707 157.984 26.784 157.728C26.208 157.461 25.7547 157.099 25.424 156.64C25.0933 156.171 24.9227 155.632 24.912 155.024H26.464C26.5173 155.547 26.7307 155.989 27.104 156.352C27.488 156.704 28.0427 156.88 28.768 156.88C29.4613 156.88 30.0053 156.709 30.4 156.368C30.8053 156.016 31.008 155.568 31.008 155.024C31.008 154.597 30.8907 154.251 30.656 153.984C30.4213 153.717 30.128 153.515 29.776 153.376C29.424 153.237 28.9493 153.088 28.352 152.928C27.616 152.736 27.024 152.544 26.576 152.352C26.1387 152.16 25.76 151.861 25.44 151.456C25.1307 151.04 24.976 150.485 24.976 149.792C24.976 149.184 25.1307 148.645 25.44 148.176C25.7493 147.707 26.1813 147.344 26.736 147.088C27.3013 146.832 27.9467 146.704 28.672 146.704C29.7173 146.704 30.5707 146.965 31.232 147.488C31.904 148.011 32.2827 148.704 32.368 149.568H30.768C30.7147 149.141 30.4907 148.768 30.096 148.448C29.7013 148.117 29.1787 147.952 28.528 147.952C27.92 147.952 27.424 148.112 27.04 148.432C26.656 148.741 26.464 149.179 26.464 149.744C26.464 150.149 26.576 150.48 26.8 150.736C27.0347 150.992 27.3173 151.189 27.648 151.328C27.9893 151.456 28.464 151.605 29.072 151.776C29.808 151.979 30.4 152.181 30.848 152.384C31.296 152.576 31.68 152.88 32 153.296C32.32 153.701 32.48 154.256 32.48 154.96C32.48 155.504 32.336 156.016 32.048 156.496C31.76 156.976 31.3333 157.365 30.768 157.664C30.2027 157.963 29.536 158.112 28.768 158.112ZM38.9746 149.072C39.636 149.072 40.2333 149.216 40.7666 149.504C41.3 149.781 41.716 150.203 42.0146 150.768C42.324 151.333 42.4786 152.021 42.4786 152.832V158H41.0386V153.04C41.0386 152.165 40.82 151.499 40.3826 151.04C39.9453 150.571 39.348 150.336 38.5906 150.336C37.8226 150.336 37.2093 150.576 36.7506 151.056C36.3026 151.536 36.0786 152.235 36.0786 153.152V158H34.6226V146.16H36.0786V150.48C36.3666 150.032 36.7613 149.685 37.2626 149.44C37.7746 149.195 38.3453 149.072 38.9746 149.072ZM45.609 147.808C45.3317 147.808 45.097 147.712 44.905 147.52C44.713 147.328 44.617 147.093 44.617 146.816C44.617 146.539 44.713 146.304 44.905 146.112C45.097 145.92 45.3317 145.824 45.609 145.824C45.8757 145.824 46.0997 145.92 46.281 146.112C46.473 146.304 46.569 146.539 46.569 146.816C46.569 147.093 46.473 147.328 46.281 147.52C46.0997 147.712 45.8757 147.808 45.609 147.808ZM46.313 149.232V158H44.857V149.232H46.313ZM50.2505 150.848C50.5385 150.347 50.9652 149.931 51.5305 149.6C52.1065 149.259 52.7732 149.088 53.5305 149.088C54.3092 149.088 55.0132 149.275 55.6425 149.648C56.2825 150.021 56.7838 150.549 57.1465 151.232C57.5092 151.904 57.6905 152.688 57.6905 153.584C57.6905 154.469 57.5092 155.259 57.1465 155.952C56.7838 156.645 56.2825 157.184 55.6425 157.568C55.0132 157.952 54.3092 158.144 53.5305 158.144C52.7838 158.144 52.1225 157.979 51.5465 157.648C50.9812 157.307 50.5492 156.885 50.2505 156.384V162.16H48.7945V149.232H50.2505V150.848ZM56.2025 153.584C56.2025 152.923 56.0692 152.347 55.8025 151.856C55.5358 151.365 55.1732 150.992 54.7145 150.736C54.2665 150.48 53.7705 150.352 53.2265 150.352C52.6932 150.352 52.1972 150.485 51.7385 150.752C51.2905 151.008 50.9278 151.387 50.6505 151.888C50.3838 152.379 50.2505 152.949 50.2505 153.6C50.2505 154.261 50.3838 154.843 50.6505 155.344C50.9278 155.835 51.2905 156.213 51.7385 156.48C52.1972 156.736 52.6932 156.864 53.2265 156.864C53.7705 156.864 54.2665 156.736 54.7145 156.48C55.1732 156.213 55.5358 155.835 55.8025 155.344C56.0692 154.843 56.2025 154.256 56.2025 153.584ZM61.063 150.848C61.351 150.347 61.7777 149.931 62.343 149.6C62.919 149.259 63.5857 149.088 64.343 149.088C65.1217 149.088 65.8257 149.275 66.455 149.648C67.095 150.021 67.5963 150.549 67.959 151.232C68.3217 151.904 68.503 152.688 68.503 153.584C68.503 154.469 68.3217 155.259 67.959 155.952C67.5963 156.645 67.095 157.184 66.455 157.568C65.8257 157.952 65.1217 158.144 64.343 158.144C63.5963 158.144 62.935 157.979 62.359 157.648C61.7937 157.307 61.3617 156.885 61.063 156.384V162.16H59.607V149.232H61.063V150.848ZM67.015 153.584C67.015 152.923 66.8817 152.347 66.615 151.856C66.3483 151.365 65.9857 150.992 65.527 150.736C65.079 150.48 64.583 150.352 64.039 150.352C63.5057 150.352 63.0097 150.485 62.551 150.752C62.103 151.008 61.7403 151.387 61.463 151.888C61.1963 152.379 61.063 152.949 61.063 153.6C61.063 154.261 61.1963 154.843 61.463 155.344C61.7403 155.835 62.103 156.213 62.551 156.48C63.0097 156.736 63.5057 156.864 64.039 156.864C64.583 156.864 65.079 156.736 65.527 156.48C65.9857 156.213 66.3483 155.835 66.615 155.344C66.8817 154.843 67.015 154.256 67.015 153.584ZM71.1715 147.808C70.8942 147.808 70.6595 147.712 70.4675 147.52C70.2755 147.328 70.1795 147.093 70.1795 146.816C70.1795 146.539 70.2755 146.304 70.4675 146.112C70.6595 145.92 70.8942 145.824 71.1715 145.824C71.4382 145.824 71.6622 145.92 71.8435 146.112C72.0355 146.304 72.1315 146.539 72.1315 146.816C72.1315 147.093 72.0355 147.328 71.8435 147.52C71.6622 147.712 71.4382 147.808 71.1715 147.808ZM71.8755 149.232V158H70.4195V149.232H71.8755ZM78.629 149.072C79.6957 149.072 80.5597 149.397 81.221 150.048C81.8823 150.688 82.213 151.616 82.213 152.832V158H80.773V153.04C80.773 152.165 80.5543 151.499 80.117 151.04C79.6797 150.571 79.0823 150.336 78.325 150.336C77.557 150.336 76.9437 150.576 76.485 151.056C76.037 151.536 75.813 152.235 75.813 153.152V158H74.357V149.232H75.813V150.48C76.101 150.032 76.4903 149.685 76.981 149.44C77.4823 149.195 78.0317 149.072 78.629 149.072ZM88.2074 149.088C88.9647 149.088 89.626 149.253 90.1914 149.584C90.7674 149.915 91.194 150.331 91.4714 150.832V149.232H92.9434V158.192C92.9434 158.992 92.7727 159.701 92.4314 160.32C92.09 160.949 91.5994 161.44 90.9594 161.792C90.33 162.144 89.594 162.32 88.7514 162.32C87.5994 162.32 86.6394 162.048 85.8714 161.504C85.1034 160.96 84.65 160.219 84.5114 159.28H85.9514C86.1114 159.813 86.442 160.24 86.9434 160.56C87.4447 160.891 88.0474 161.056 88.7514 161.056C89.5514 161.056 90.202 160.805 90.7034 160.304C91.2154 159.803 91.4714 159.099 91.4714 158.192V156.352C91.1834 156.864 90.7567 157.291 90.1914 157.632C89.626 157.973 88.9647 158.144 88.2074 158.144C87.4287 158.144 86.7194 157.952 86.0794 157.568C85.45 157.184 84.954 156.645 84.5914 155.952C84.2287 155.259 84.0474 154.469 84.0474 153.584C84.0474 152.688 84.2287 151.904 84.5914 151.232C84.954 150.549 85.45 150.021 86.0794 149.648C86.7194 149.275 87.4287 149.088 88.2074 149.088ZM91.4714 153.6C91.4714 152.939 91.338 152.363 91.0714 151.872C90.8047 151.381 90.442 151.008 89.9834 150.752C89.5354 150.485 89.0394 150.352 88.4954 150.352C87.9514 150.352 87.4554 150.48 87.0074 150.736C86.5594 150.992 86.202 151.365 85.9354 151.856C85.6687 152.347 85.5354 152.923 85.5354 153.584C85.5354 154.256 85.6687 154.843 85.9354 155.344C86.202 155.835 86.5594 156.213 87.0074 156.48C87.4554 156.736 87.9514 156.864 88.4954 156.864C89.0394 156.864 89.5354 156.736 89.9834 156.48C90.442 156.213 90.8047 155.835 91.0714 155.344C91.338 154.843 91.4714 154.261 91.4714 153.6ZM95.8679 158.096C95.5905 158.096 95.3559 158 95.1639 157.808C94.9719 157.616 94.8759 157.381 94.8759 157.104C94.8759 156.827 94.9719 156.592 95.1639 156.4C95.3559 156.208 95.5905 156.112 95.8679 156.112C96.1345 156.112 96.3585 156.208 96.5399 156.4C96.7319 156.592 96.8279 156.827 96.8279 157.104C96.8279 157.381 96.7319 157.616 96.5399 157.808C96.3585 158 96.1345 158.096 95.8679 158.096ZM95.8679 151.248C95.5905 151.248 95.3559 151.152 95.1639 150.96C94.9719 150.768 94.8759 150.533 94.8759 150.256C94.8759 149.979 94.9719 149.744 95.1639 149.552C95.3559 149.36 95.5905 149.264 95.8679 149.264C96.1345 149.264 96.3585 149.36 96.5399 149.552C96.7319 149.744 96.8279 149.979 96.8279 150.256C96.8279 150.533 96.7319 150.768 96.5399 150.96C96.3585 151.152 96.1345 151.248 95.8679 151.248Z" fill="black"/>
<path d="M419.536 146.848V148.032H414.688V151.792H418.624V152.976H414.688V158H413.232V146.848H419.536ZM422.751 150.656C423.007 150.155 423.369 149.765 423.839 149.488C424.319 149.211 424.9 149.072 425.583 149.072V150.576H425.199C423.567 150.576 422.751 151.461 422.751 153.232V158H421.295V149.232H422.751V150.656ZM435.263 153.28C435.263 153.557 435.247 153.851 435.215 154.16H428.207C428.261 155.024 428.554 155.701 429.087 156.192C429.631 156.672 430.287 156.912 431.055 156.912C431.685 156.912 432.207 156.768 432.623 156.48C433.05 156.181 433.349 155.787 433.519 155.296H435.087C434.853 156.139 434.383 156.827 433.679 157.36C432.975 157.883 432.101 158.144 431.055 158.144C430.223 158.144 429.477 157.957 428.815 157.584C428.165 157.211 427.653 156.683 427.279 156C426.906 155.307 426.719 154.507 426.719 153.6C426.719 152.693 426.901 151.899 427.263 151.216C427.626 150.533 428.133 150.011 428.783 149.648C429.445 149.275 430.202 149.088 431.055 149.088C431.887 149.088 432.623 149.269 433.263 149.632C433.903 149.995 434.394 150.496 434.735 151.136C435.087 151.765 435.263 152.48 435.263 153.28ZM433.759 152.976C433.759 152.421 433.637 151.947 433.391 151.552C433.146 151.147 432.81 150.843 432.383 150.64C431.967 150.427 431.503 150.32 430.991 150.32C430.255 150.32 429.626 150.555 429.103 151.024C428.591 151.493 428.298 152.144 428.223 152.976H433.759ZM445.185 153.28C445.185 153.557 445.169 153.851 445.137 154.16H438.129C438.182 155.024 438.476 155.701 439.009 156.192C439.553 156.672 440.209 156.912 440.977 156.912C441.606 156.912 442.129 156.768 442.545 156.48C442.972 156.181 443.27 155.787 443.441 155.296H445.009C444.774 156.139 444.305 156.827 443.601 157.36C442.897 157.883 442.022 158.144 440.977 158.144C440.145 158.144 439.398 157.957 438.737 157.584C438.086 157.211 437.574 156.683 437.201 156C436.828 155.307 436.641 154.507 436.641 153.6C436.641 152.693 436.822 151.899 437.185 151.216C437.548 150.533 438.054 150.011 438.705 149.648C439.366 149.275 440.124 149.088 440.977 149.088C441.809 149.088 442.545 149.269 443.185 149.632C443.825 149.995 444.316 150.496 444.657 151.136C445.009 151.765 445.185 152.48 445.185 153.28ZM443.681 152.976C443.681 152.421 443.558 151.947 443.313 151.552C443.068 151.147 442.732 150.843 442.305 150.64C441.889 150.427 441.425 150.32 440.913 150.32C440.177 150.32 439.548 150.555 439.025 151.024C438.513 151.493 438.22 152.144 438.145 152.976H443.681Z" fill="black"/>
<path d="M32.096 202.848V204.032H29.056V214H27.6V204.032H24.544V202.848H32.096ZM37.7123 214.144C36.8909 214.144 36.1443 213.957 35.4723 213.584C34.8109 213.211 34.2883 212.683 33.9043 212C33.5309 211.307 33.3443 210.507 33.3443 209.6C33.3443 208.704 33.5363 207.915 33.9203 207.232C34.3149 206.539 34.8483 206.011 35.5203 205.648C36.1923 205.275 36.9443 205.088 37.7763 205.088C38.6083 205.088 39.3603 205.275 40.0323 205.648C40.7043 206.011 41.2323 206.533 41.6163 207.216C42.0109 207.899 42.2083 208.693 42.2083 209.6C42.2083 210.507 42.0056 211.307 41.6003 212C41.2056 212.683 40.6669 213.211 39.9843 213.584C39.3016 213.957 38.5443 214.144 37.7123 214.144ZM37.7123 212.864C38.2349 212.864 38.7256 212.741 39.1843 212.496C39.6429 212.251 40.0109 211.883 40.2883 211.392C40.5763 210.901 40.7203 210.304 40.7203 209.6C40.7203 208.896 40.5816 208.299 40.3043 207.808C40.0269 207.317 39.6643 206.955 39.2163 206.72C38.7683 206.475 38.2829 206.352 37.7603 206.352C37.2269 206.352 36.7363 206.475 36.2883 206.72C35.8509 206.955 35.4989 207.317 35.2323 207.808C34.9656 208.299 34.8323 208.896 34.8323 209.6C34.8323 210.315 34.9603 210.917 35.2163 211.408C35.4829 211.899 35.8349 212.267 36.2723 212.512C36.7096 212.747 37.1896 212.864 37.7123 212.864ZM45.8986 206.432V211.6C45.8986 212.027 45.9893 212.331 46.1706 212.512C46.352 212.683 46.6666 212.768 47.1146 212.768H48.1866V214H46.8746C46.064 214 45.456 213.813 45.0506 213.44C44.6453 213.067 44.4426 212.453 44.4426 211.6V206.432H43.3066V205.232H44.4426V203.024H45.8986V205.232H48.1866V206.432H45.8986ZM49.4068 209.584C49.4068 208.688 49.5881 207.904 49.9508 207.232C50.3134 206.549 50.8094 206.021 51.4388 205.648C52.0788 205.275 52.7881 205.088 53.5668 205.088C54.3348 205.088 55.0014 205.253 55.5668 205.584C56.1321 205.915 56.5534 206.331 56.8308 206.832V205.232H58.3028V214H56.8308V212.368C56.5428 212.88 56.1108 213.307 55.5348 213.648C54.9694 213.979 54.3081 214.144 53.5508 214.144C52.7721 214.144 52.0681 213.952 51.4388 213.568C50.8094 213.184 50.3134 212.645 49.9508 211.952C49.5881 211.259 49.4068 210.469 49.4068 209.584ZM56.8308 209.6C56.8308 208.939 56.6974 208.363 56.4308 207.872C56.1641 207.381 55.8014 207.008 55.3428 206.752C54.8948 206.485 54.3988 206.352 53.8548 206.352C53.3108 206.352 52.8148 206.48 52.3668 206.736C51.9188 206.992 51.5614 207.365 51.2948 207.856C51.0281 208.347 50.8948 208.923 50.8948 209.584C50.8948 210.256 51.0281 210.843 51.2948 211.344C51.5614 211.835 51.9188 212.213 52.3668 212.48C52.8148 212.736 53.3108 212.864 53.8548 212.864C54.3988 212.864 54.8948 212.736 55.3428 212.48C55.8014 212.213 56.1641 211.835 56.4308 211.344C56.6974 210.843 56.8308 210.261 56.8308 209.6ZM62.2193 202.16V214H60.7633V202.16H62.2193ZM65.1648 214.096C64.8874 214.096 64.6528 214 64.4608 213.808C64.2688 213.616 64.1728 213.381 64.1728 213.104C64.1728 212.827 64.2688 212.592 64.4608 212.4C64.6528 212.208 64.8874 212.112 65.1648 212.112C65.4314 212.112 65.6554 212.208 65.8368 212.4C66.0288 212.592 66.1248 212.827 66.1248 213.104C66.1248 213.381 66.0288 213.616 65.8368 213.808C65.6554 214 65.4314 214.096 65.1648 214.096ZM65.1648 207.248C64.8874 207.248 64.6528 207.152 64.4608 206.96C64.2688 206.768 64.1728 206.533 64.1728 206.256C64.1728 205.979 64.2688 205.744 64.4608 205.552C64.6528 205.36 64.8874 205.264 65.1648 205.264C65.4314 205.264 65.6554 205.36 65.8368 205.552C66.0288 205.744 66.1248 205.979 66.1248 206.256C66.1248 206.533 66.0288 206.768 65.8368 206.96C65.6554 207.152 65.4314 207.248 65.1648 207.248Z" fill="black"/>
<path d="M410.432 210.944C410.432 211.456 410.304 211.947 410.048 212.416C409.792 212.875 409.413 213.259 408.912 213.568C408.421 213.877 407.829 214.053 407.136 214.096V215.392H406.272V214.096C405.301 214.011 404.512 213.701 403.904 213.168C403.296 212.624 402.987 211.936 402.976 211.104H404.528C404.571 211.552 404.736 211.941 405.024 212.272C405.323 212.603 405.739 212.811 406.272 212.896V208.896C405.557 208.715 404.981 208.528 404.544 208.336C404.107 208.144 403.733 207.845 403.424 207.44C403.115 207.035 402.96 206.491 402.96 205.808C402.96 204.944 403.259 204.229 403.856 203.664C404.464 203.099 405.269 202.784 406.272 202.72V201.392H407.136V202.72C408.043 202.795 408.773 203.088 409.328 203.6C409.883 204.101 410.203 204.757 410.288 205.568H408.736C408.683 205.195 408.517 204.859 408.24 204.56C407.963 204.251 407.595 204.048 407.136 203.952V207.856C407.84 208.037 408.411 208.224 408.848 208.416C409.296 208.597 409.669 208.891 409.968 209.296C410.277 209.701 410.432 210.251 410.432 210.944ZM404.448 205.728C404.448 206.251 404.603 206.651 404.912 206.928C405.221 207.205 405.675 207.435 406.272 207.616V203.92C405.717 203.973 405.275 204.155 404.944 204.464C404.613 204.763 404.448 205.184 404.448 205.728ZM407.136 212.912C407.712 212.848 408.16 212.64 408.48 212.288C408.811 211.936 408.976 211.515 408.976 211.024C408.976 210.501 408.816 210.101 408.496 209.824C408.176 209.536 407.723 209.307 407.136 209.136V212.912ZM412.561 203.76V202.432H415.569V214H414.097V203.76H412.561ZM425.19 203.568L420.742 214H419.27L423.782 203.712H417.606V202.464H425.19V203.568ZM434.181 203.696H428.565V207.344C428.81 207.003 429.173 206.725 429.653 206.512C430.133 206.288 430.65 206.176 431.205 206.176C432.09 206.176 432.81 206.363 433.365 206.736C433.919 207.099 434.314 207.573 434.549 208.16C434.794 208.736 434.917 209.349 434.917 210C434.917 210.768 434.773 211.456 434.485 212.064C434.197 212.672 433.754 213.152 433.157 213.504C432.57 213.856 431.839 214.032 430.965 214.032C429.845 214.032 428.938 213.744 428.245 213.168C427.551 212.592 427.13 211.824 426.981 210.864H428.405C428.543 211.472 428.837 211.947 429.285 212.288C429.733 212.629 430.298 212.8 430.981 212.8C431.823 212.8 432.458 212.549 432.885 212.048C433.311 211.536 433.525 210.864 433.525 210.032C433.525 209.2 433.311 208.56 432.885 208.112C432.458 207.653 431.829 207.424 430.997 207.424C430.431 207.424 429.935 207.563 429.509 207.84C429.093 208.107 428.789 208.475 428.597 208.944H427.221V202.416H434.181V203.696ZM436.851 208.096C436.851 206.261 437.15 204.832 437.747 203.808C438.345 202.773 439.39 202.256 440.883 202.256C442.366 202.256 443.406 202.773 444.003 203.808C444.601 204.832 444.899 206.261 444.899 208.096C444.899 209.963 444.601 211.413 444.003 212.448C443.406 213.483 442.366 214 440.883 214C439.39 214 438.345 213.483 437.747 212.448C437.15 211.413 436.851 209.963 436.851 208.096ZM443.459 208.096C443.459 207.168 443.395 206.384 443.267 205.744C443.15 205.093 442.899 204.571 442.515 204.176C442.142 203.781 441.598 203.584 440.883 203.584C440.158 203.584 439.603 203.781 439.219 204.176C438.846 204.571 438.595 205.093 438.467 205.744C438.35 206.384 438.291 207.168 438.291 208.096C438.291 209.056 438.35 209.861 438.467 210.512C438.595 211.163 438.846 211.685 439.219 212.08C439.603 212.475 440.158 212.672 440.883 212.672C441.598 212.672 442.142 212.475 442.515 212.08C442.899 211.685 443.15 211.163 443.267 210.512C443.395 209.861 443.459 209.056 443.459 208.096Z" fill="black"/>
<rect x="89" y="236" width="260" height="56" rx="4" fill="#DB4444"/>
<path d="M145.976 262.192C145.976 262.757 145.843 263.291 145.576 263.792C145.309 264.293 144.883 264.704 144.296 265.024C143.709 265.333 142.957 265.488 142.04 265.488H140.024V270H138.2V258.88H142.04C142.893 258.88 143.613 259.029 144.2 259.328C144.797 259.616 145.24 260.011 145.528 260.512C145.827 261.013 145.976 261.573 145.976 262.192ZM142.04 264C142.733 264 143.251 263.845 143.592 263.536C143.933 263.216 144.104 262.768 144.104 262.192C144.104 260.976 143.416 260.368 142.04 260.368H140.024V264H142.04ZM149.54 262.464C149.806 262.016 150.158 261.669 150.596 261.424C151.044 261.168 151.572 261.04 152.18 261.04V262.928H151.716C151.001 262.928 150.457 263.109 150.084 263.472C149.721 263.835 149.54 264.464 149.54 265.36V270H147.716V261.184H149.54V262.464ZM157.68 270.144C156.848 270.144 156.096 269.957 155.424 269.584C154.752 269.2 154.224 268.667 153.84 267.984C153.456 267.291 153.264 266.491 153.264 265.584C153.264 264.688 153.462 263.893 153.856 263.2C154.251 262.507 154.79 261.973 155.472 261.6C156.155 261.227 156.918 261.04 157.76 261.04C158.603 261.04 159.366 261.227 160.048 261.6C160.731 261.973 161.27 262.507 161.664 263.2C162.059 263.893 162.256 264.688 162.256 265.584C162.256 266.48 162.054 267.275 161.648 267.968C161.243 268.661 160.688 269.2 159.984 269.584C159.291 269.957 158.523 270.144 157.68 270.144ZM157.68 268.56C158.15 268.56 158.587 268.448 158.992 268.224C159.408 268 159.744 267.664 160 267.216C160.256 266.768 160.384 266.224 160.384 265.584C160.384 264.944 160.262 264.405 160.016 263.968C159.771 263.52 159.446 263.184 159.04 262.96C158.635 262.736 158.198 262.624 157.728 262.624C157.259 262.624 156.822 262.736 156.416 262.96C156.022 263.184 155.707 263.52 155.472 263.968C155.238 264.405 155.12 264.944 155.12 265.584C155.12 266.533 155.36 267.269 155.84 267.792C156.331 268.304 156.944 268.56 157.68 268.56ZM163.451 265.584C163.451 264.677 163.633 263.883 163.995 263.2C164.369 262.507 164.881 261.973 165.531 261.6C166.182 261.227 166.929 261.04 167.771 261.04C168.838 261.04 169.718 261.296 170.411 261.808C171.115 262.309 171.59 263.029 171.835 263.968H169.867C169.707 263.531 169.451 263.189 169.099 262.944C168.747 262.699 168.305 262.576 167.771 262.576C167.025 262.576 166.427 262.843 165.979 263.376C165.542 263.899 165.323 264.635 165.323 265.584C165.323 266.533 165.542 267.275 165.979 267.808C166.427 268.341 167.025 268.608 167.771 268.608C168.827 268.608 169.526 268.144 169.867 267.216H171.835C171.579 268.112 171.099 268.827 170.395 269.36C169.691 269.883 168.817 270.144 167.771 270.144C166.929 270.144 166.182 269.957 165.531 269.584C164.881 269.2 164.369 268.667 163.995 267.984C163.633 267.291 163.451 266.491 163.451 265.584ZM181.733 265.376C181.733 265.707 181.712 266.005 181.669 266.272H174.933C174.986 266.976 175.248 267.541 175.717 267.968C176.186 268.395 176.762 268.608 177.445 268.608C178.426 268.608 179.12 268.197 179.525 267.376H181.493C181.226 268.187 180.741 268.853 180.037 269.376C179.344 269.888 178.48 270.144 177.445 270.144C176.602 270.144 175.845 269.957 175.173 269.584C174.512 269.2 173.989 268.667 173.605 267.984C173.232 267.291 173.045 266.491 173.045 265.584C173.045 264.677 173.226 263.883 173.589 263.2C173.962 262.507 174.48 261.973 175.141 261.6C175.813 261.227 176.581 261.04 177.445 261.04C178.277 261.04 179.018 261.221 179.669 261.584C180.32 261.947 180.826 262.459 181.189 263.12C181.552 263.771 181.733 264.523 181.733 265.376ZM179.829 264.8C179.818 264.128 179.578 263.589 179.109 263.184C178.64 262.779 178.058 262.576 177.365 262.576C176.736 262.576 176.197 262.779 175.749 263.184C175.301 263.579 175.034 264.117 174.949 264.8H179.829ZM191.608 265.376C191.608 265.707 191.587 266.005 191.544 266.272H184.808C184.861 266.976 185.123 267.541 185.592 267.968C186.061 268.395 186.637 268.608 187.32 268.608C188.301 268.608 188.995 268.197 189.4 267.376H191.368C191.101 268.187 190.616 268.853 189.912 269.376C189.219 269.888 188.355 270.144 187.32 270.144C186.477 270.144 185.72 269.957 185.048 269.584C184.387 269.2 183.864 268.667 183.48 267.984C183.107 267.291 182.92 266.491 182.92 265.584C182.92 264.677 183.101 263.883 183.464 263.2C183.837 262.507 184.355 261.973 185.016 261.6C185.688 261.227 186.456 261.04 187.32 261.04C188.152 261.04 188.893 261.221 189.544 261.584C190.195 261.947 190.701 262.459 191.064 263.12C191.427 263.771 191.608 264.523 191.608 265.376ZM189.704 264.8C189.693 264.128 189.453 263.589 188.984 263.184C188.515 262.779 187.933 262.576 187.24 262.576C186.611 262.576 186.072 262.779 185.624 263.184C185.176 263.579 184.909 264.117 184.824 264.8H189.704ZM196.603 270.144C195.91 270.144 195.286 270.021 194.731 269.776C194.187 269.52 193.755 269.179 193.435 268.752C193.115 268.315 192.944 267.829 192.923 267.296H194.811C194.843 267.669 195.019 267.984 195.339 268.24C195.67 268.485 196.08 268.608 196.571 268.608C197.083 268.608 197.478 268.512 197.755 268.32C198.043 268.117 198.187 267.861 198.187 267.552C198.187 267.221 198.027 266.976 197.707 266.816C197.398 266.656 196.902 266.48 196.219 266.288C195.558 266.107 195.019 265.931 194.603 265.76C194.187 265.589 193.824 265.328 193.515 264.976C193.216 264.624 193.067 264.16 193.067 263.584C193.067 263.115 193.206 262.688 193.483 262.304C193.76 261.909 194.155 261.6 194.667 261.376C195.19 261.152 195.787 261.04 196.459 261.04C197.462 261.04 198.267 261.296 198.875 261.808C199.494 262.309 199.824 262.997 199.867 263.872H198.043C198.011 263.477 197.851 263.163 197.563 262.928C197.275 262.693 196.886 262.576 196.395 262.576C195.915 262.576 195.547 262.667 195.291 262.848C195.035 263.029 194.907 263.269 194.907 263.568C194.907 263.803 194.992 264 195.163 264.16C195.334 264.32 195.542 264.448 195.787 264.544C196.032 264.629 196.395 264.741 196.875 264.88C197.515 265.051 198.038 265.227 198.443 265.408C198.859 265.579 199.216 265.835 199.515 266.176C199.814 266.517 199.968 266.971 199.979 267.536C199.979 268.037 199.84 268.485 199.563 268.88C199.286 269.275 198.891 269.584 198.379 269.808C197.878 270.032 197.286 270.144 196.603 270.144ZM208.234 262.672V267.552C208.234 267.883 208.309 268.123 208.458 268.272C208.618 268.411 208.885 268.48 209.258 268.48H210.378V270H208.938C208.117 270 207.488 269.808 207.05 269.424C206.613 269.04 206.394 268.416 206.394 267.552V262.672H205.354V261.184H206.394V258.992H208.234V261.184H210.378V262.672H208.234ZM215.883 270.144C215.051 270.144 214.299 269.957 213.627 269.584C212.955 269.2 212.427 268.667 212.043 267.984C211.659 267.291 211.467 266.491 211.467 265.584C211.467 264.688 211.665 263.893 212.059 263.2C212.454 262.507 212.993 261.973 213.675 261.6C214.358 261.227 215.121 261.04 215.963 261.04C216.806 261.04 217.569 261.227 218.251 261.6C218.934 261.973 219.473 262.507 219.867 263.2C220.262 263.893 220.459 264.688 220.459 265.584C220.459 266.48 220.257 267.275 219.851 267.968C219.446 268.661 218.891 269.2 218.187 269.584C217.494 269.957 216.726 270.144 215.883 270.144ZM215.883 268.56C216.353 268.56 216.79 268.448 217.195 268.224C217.611 268 217.947 267.664 218.203 267.216C218.459 266.768 218.587 266.224 218.587 265.584C218.587 264.944 218.465 264.405 218.219 263.968C217.974 263.52 217.649 263.184 217.243 262.96C216.838 262.736 216.401 262.624 215.931 262.624C215.462 262.624 215.025 262.736 214.619 262.96C214.225 263.184 213.91 263.52 213.675 263.968C213.441 264.405 213.323 264.944 213.323 265.584C213.323 266.533 213.563 267.269 214.043 267.792C214.534 268.304 215.147 268.56 215.883 268.56ZM225.811 265.584C225.811 264.677 225.992 263.883 226.355 263.2C226.728 262.507 227.24 261.973 227.891 261.6C228.541 261.227 229.288 261.04 230.131 261.04C231.197 261.04 232.077 261.296 232.771 261.808C233.475 262.309 233.949 263.029 234.195 263.968H232.227C232.067 263.531 231.811 263.189 231.459 262.944C231.107 262.699 230.664 262.576 230.131 262.576C229.384 262.576 228.787 262.843 228.339 263.376C227.901 263.899 227.683 264.635 227.683 265.584C227.683 266.533 227.901 267.275 228.339 267.808C228.787 268.341 229.384 268.608 230.131 268.608C231.187 268.608 231.885 268.144 232.227 267.216H234.195C233.939 268.112 233.459 268.827 232.755 269.36C232.051 269.883 231.176 270.144 230.131 270.144C229.288 270.144 228.541 269.957 227.891 269.584C227.24 269.2 226.728 268.667 226.355 267.984C225.992 267.291 225.811 266.491 225.811 265.584ZM240.573 261.04C241.245 261.04 241.842 261.184 242.365 261.472C242.898 261.76 243.314 262.187 243.613 262.752C243.922 263.317 244.077 264 244.077 264.8V270H242.269V265.072C242.269 264.283 242.071 263.68 241.677 263.264C241.282 262.837 240.743 262.624 240.061 262.624C239.378 262.624 238.834 262.837 238.429 263.264C238.034 263.68 237.837 264.283 237.837 265.072V270H236.013V258.16H237.837V262.208C238.146 261.835 238.535 261.547 239.005 261.344C239.485 261.141 240.007 261.04 240.573 261.04ZM254.483 265.376C254.483 265.707 254.462 266.005 254.419 266.272H247.683C247.736 266.976 247.998 267.541 248.467 267.968C248.936 268.395 249.512 268.608 250.195 268.608C251.176 268.608 251.87 268.197 252.275 267.376H254.243C253.976 268.187 253.491 268.853 252.787 269.376C252.094 269.888 251.23 270.144 250.195 270.144C249.352 270.144 248.595 269.957 247.923 269.584C247.262 269.2 246.739 268.667 246.355 267.984C245.982 267.291 245.795 266.491 245.795 265.584C245.795 264.677 245.976 263.883 246.339 263.2C246.712 262.507 247.23 261.973 247.891 261.6C248.563 261.227 249.331 261.04 250.195 261.04C251.027 261.04 251.768 261.221 252.419 261.584C253.07 261.947 253.576 262.459 253.939 263.12C254.302 263.771 254.483 264.523 254.483 265.376ZM252.579 264.8C252.568 264.128 252.328 263.589 251.859 263.184C251.39 262.779 250.808 262.576 250.115 262.576C249.486 262.576 248.947 262.779 248.499 263.184C248.051 263.579 247.784 264.117 247.699 264.8H252.579ZM255.67 265.584C255.67 264.677 255.851 263.883 256.214 263.2C256.587 262.507 257.099 261.973 257.75 261.6C258.401 261.227 259.147 261.04 259.99 261.04C261.057 261.04 261.937 261.296 262.63 261.808C263.334 262.309 263.809 263.029 264.054 263.968H262.086C261.926 263.531 261.67 263.189 261.318 262.944C260.966 262.699 260.523 262.576 259.99 262.576C259.243 262.576 258.646 262.843 258.198 263.376C257.761 263.899 257.542 264.635 257.542 265.584C257.542 266.533 257.761 267.275 258.198 267.808C258.646 268.341 259.243 268.608 259.99 268.608C261.046 268.608 261.745 268.144 262.086 267.216H264.054C263.798 268.112 263.318 268.827 262.614 269.36C261.91 269.883 261.035 270.144 259.99 270.144C259.147 270.144 258.401 269.957 257.75 269.584C257.099 269.2 256.587 268.667 256.214 267.984C255.851 267.291 255.67 266.491 255.67 265.584ZM269.36 265.6L273.424 270H270.96L267.696 266.208V270H265.872V258.16H267.696V265.04L270.896 261.184H273.424L269.36 265.6ZM278.555 270.144C277.723 270.144 276.971 269.957 276.299 269.584C275.627 269.2 275.099 268.667 274.715 267.984C274.331 267.291 274.139 266.491 274.139 265.584C274.139 264.688 274.337 263.893 274.731 263.2C275.126 262.507 275.665 261.973 276.347 261.6C277.03 261.227 277.793 261.04 278.635 261.04C279.478 261.04 280.241 261.227 280.923 261.6C281.606 261.973 282.145 262.507 282.539 263.2C282.934 263.893 283.131 264.688 283.131 265.584C283.131 266.48 282.929 267.275 282.523 267.968C282.118 268.661 281.563 269.2 280.859 269.584C280.166 269.957 279.398 270.144 278.555 270.144ZM278.555 268.56C279.025 268.56 279.462 268.448 279.867 268.224C280.283 268 280.619 267.664 280.875 267.216C281.131 266.768 281.259 266.224 281.259 265.584C281.259 264.944 281.137 264.405 280.891 263.968C280.646 263.52 280.321 263.184 279.915 262.96C279.51 262.736 279.073 262.624 278.603 262.624C278.134 262.624 277.697 262.736 277.291 262.96C276.897 263.184 276.582 263.52 276.347 263.968C276.113 264.405 275.995 264.944 275.995 265.584C275.995 266.533 276.235 267.269 276.715 267.792C277.206 268.304 277.819 268.56 278.555 268.56ZM292.918 261.184V270H291.094V268.96C290.806 269.323 290.428 269.611 289.958 269.824C289.5 270.027 289.009 270.128 288.486 270.128C287.793 270.128 287.169 269.984 286.614 269.696C286.07 269.408 285.638 268.981 285.318 268.416C285.009 267.851 284.854 267.168 284.854 266.368V261.184H286.662V266.096C286.662 266.885 286.86 267.493 287.254 267.92C287.649 268.336 288.188 268.544 288.87 268.544C289.553 268.544 290.092 268.336 290.486 267.92C290.892 267.493 291.094 266.885 291.094 266.096V261.184H292.918ZM297.453 262.672V267.552C297.453 267.883 297.528 268.123 297.677 268.272C297.837 268.411 298.104 268.48 298.477 268.48H299.597V270H298.157C297.336 270 296.706 269.808 296.269 269.424C295.832 269.04 295.613 268.416 295.613 267.552V262.672H294.573V261.184H295.613V258.992H297.453V261.184H299.597V262.672H297.453Z" fill="#FAFAFA"/>
<g opacity="0.4">
<line x1="24" y1="123.5" x2="446" y2="123.5" stroke="black"/>
</g>
<g opacity="0.4">
<line x1="24" y1="179.5" x2="446" y2="179.5" stroke="black"/>
</g>
</svg>
